<?xml version="1.0" encoding="utf-8"?>
<!-- Generator: Adobe Illustrator 22.1.0, SVG Export Plug-In . SVG Version: 6.00 Build 0)  -->
<svg width="50px" height="50px" version="1.1" id="图层_1" xmlns="http://www.w3.org/2000/svg" xmlns:xlink="http://www.w3.org/1999/xlink" x="0px" y="0px"
	 viewBox="0 0 41 44" style="enable-background:new 0 0 41 44;" xml:space="preserve">
<style type="text/css">
	.st0{fill-opacity:0;}
</style>
<title>规则管理</title>
<desc>Created with Sketch.</desc>
<g id="Page-1">
	<g id="画板" transform="translate(-358.000000, -467.000000)">
		<g id="规则管理" transform="translate(353.000000, 464.000000)">
			<rect id="矩形" class="st0" width="50" height="50"/>
			<path id="形状" d="M42.3,9.2h-3.4V6.4c0-1.7-1.4-3.1-3.1-3.1H8.3c-1.7,0-3.1,1.4-3.1,3.1v31.4c0,1.7,1.4,3.1,3.1,3.1h3.4v2.8
				c0,1.7,1.4,3.1,3.1,3.1h27.5c1.7,0,3.1-1.4,3.1-3.1V12.2C45.4,10.6,44,9.2,42.3,9.2z M8.3,38.1C8.1,38.1,8,38,8,37.8V6.4
				C8,6.2,8.1,6,8.3,6h27.5c0.2,0,0.4,0.2,0.4,0.4v2.8H14.8c-1.7,0-3.1,1.4-3.1,3.1v25.9H8.3z M42.7,43.6c0,0.2-0.2,0.4-0.4,0.4
				H14.8c-0.2,0-0.4-0.2-0.4-0.4V12.2c0-0.2,0.2-0.4,0.4-0.4h27.5c0.2,0,0.4,0.2,0.4,0.4L42.7,43.6z" style="fill:#E57E22"/>
			<path id="形状_1_" d="M29,32.8h-7.8c-0.8,0-1.4,0.6-1.4,1.4s0.6,1.4,1.4,1.4H29c0.8,0,1.4-0.6,1.4-1.4
				C30.3,33.4,29.7,32.8,29,32.8z M36.1,25.5h-15c-0.8,0-1.4,0.6-1.4,1.4c0,0.7,0.6,1.4,1.4,1.4h15c0.8,0,1.4-0.6,1.4-1.4
				C37.5,26.1,36.9,25.5,36.1,25.5z M36.1,18.4h-15c-0.8,0-1.4,0.6-1.4,1.4c0,0.7,0.6,1.4,1.4,1.4h15c0.8,0,1.4-0.6,1.4-1.4
				C37.5,19,36.9,18.4,36.1,18.4z" style="fill:#E57E22"/>
		</g>
	</g>
</g>
</svg>
