<?xml version="1.0" encoding="utf-8"?>
<!-- Generator: Adobe Illustrator 22.1.0, SVG Export Plug-In . SVG Version: 6.00 Build 0)  -->
<svg width="50px" height="50px" version="1.1" id="图层_1" xmlns="http://www.w3.org/2000/svg" xmlns:xlink="http://www.w3.org/1999/xlink" x="0px" y="0px"
	 viewBox="0 0 44 50" style="enable-background:new 0 0 44 50;" xml:space="preserve">
<style type="text/css">
	.st0{fill-opacity:0;}
</style>
<title>产品模型</title>
<desc>Created with Sketch.</desc>
<g id="Page-1">
	<g id="画板" transform="translate(-356.000000, -737.000000)">
		<g id="产品模型" transform="translate(353.000000, 737.000000)">
			<rect id="矩形" class="st0" width="50" height="50"/>
			<path id="形状" d="M4.2,11.7L24.1,0.2c0.6-0.3,1.2-0.3,1.8,0l19.9,11.4c0.6,0.3,0.9,0.9,0.9,1.5v22.9c0,0.6-0.3,1.2-0.9,1.5
				L25.9,49.1c-0.6,0.3-1.2,0.3-1.8,0L4.2,37.7c-0.6-0.3-0.9-0.9-0.9-1.5V13.2C3.3,12.6,3.7,12,4.2,11.7L4.2,11.7z M7.1,14.1
				c-0.1,0.1-0.2,0.2-0.2,0.4v20.3c0,0.2,0.1,0.3,0.2,0.4l17.6,10.2c0.1,0.1,0.3,0.1,0.4,0l17.6-10.2c0.1-0.1,0.2-0.2,0.2-0.4V14.5
				c0-0.2-0.1-0.3-0.2-0.4L25.2,4c-0.1-0.1-0.3-0.1-0.4,0L7.1,14.1z M25,22.8l13.8-7.9c0.9-0.5,1.9-0.2,2.4,0.7
				c0.5,0.9,0.2,1.9-0.7,2.4l-13.7,7.9v15.7c0,1-0.8,1.8-1.8,1.8c-1,0-1.8-0.8-1.8-1.8V25.9L9.5,18c-0.9-0.5-1.1-1.6-0.7-2.4
				c0.5-0.9,1.6-1.1,2.4-0.7L25,22.8z"/>
		</g>
	</g>
</g>
</svg>
