<?xml version="1.0" encoding="utf-8"?>
<!-- Generator: Adobe Illustrator 22.1.0, SVG Export Plug-In . SVG Version: 6.00 Build 0)  -->
<svg width="50px" height="50px" version="1.1" id="图层_1" xmlns="http://www.w3.org/2000/svg" xmlns:xlink="http://www.w3.org/1999/xlink" x="0px" y="0px"
	 viewBox="0 0 42 42" style="enable-background:new 0 0 42 42;" xml:space="preserve">
<style type="text/css">
	.st0{fill-opacity:0;}
</style>
<title>查询</title>
<desc>Created with Sketch.</desc>
<g id="Page-1">
	<g id="画板" transform="translate(-357.000000, -836.000000)">
		<g id="查询" transform="translate(350.000000, 829.000000)">
			<rect id="矩形" class="st0" width="55" height="55"/>
			<path id="形状" d="M25.2,10.6c7.5,0,13.7,5.7,14.5,13.1c0.7,7.4-4.3,14.2-11.6,15.7c-7.3,1.5-14.6-2.8-16.8-10
				s1.4-14.8,8.2-17.7C21.4,11,23.3,10.6,25.2,10.6z M25.2,7.2c-10,0-18,8.1-18,18s8.1,18,18,18s18-8.1,18-18S35.2,7.2,25.2,7.2z
				 M38.5,36.1l-2.4,2.4l10,10l2.4-2.4L38.5,36.1z"/>
		</g>
	</g>
</g>
</svg>
