<?xml version="1.0" encoding="utf-8"?>
<!-- Generator: Adobe Illustrator 22.1.0, SVG Export Plug-In . SVG Version: 6.00 Build 0)  -->
<svg width="50px" height="50px" version="1.1" id="图层_1" xmlns="http://www.w3.org/2000/svg" xmlns:xlink="http://www.w3.org/1999/xlink" x="0px" y="0px"
	 viewBox="0 0 42 46" style="enable-background:new 0 0 42 46;" xml:space="preserve">
<style type="text/css">
	.st0{fill-opacity:0;}
	.st1{fill:#001629;}
</style>
<title>编码规则</title>
<desc>Created with Sketch.</desc>
<g id="Page-1">
	<g id="画板" transform="translate(-357.000000, -374.000000)">
		<g id="编码规则" transform="translate(353.000000, 372.000000)">
			<rect id="矩形" class="st0" width="50" height="50"/>
			<path id="形状" class="st1" d="M35.4,13.5H19.2c-0.6,0-1.1,0.5-1.1,1.1s0.5,1.1,1.1,1.1h16.2c0.6,0,1.1-0.5,1.1-1.1
				S36,13.5,35.4,13.5z M14.6,13.5c-0.6,0-1.2,0.5-1.2,1.1c0,0.6,0.5,1.1,1.2,1.1c0.6,0,1.1-0.5,1.1-1.1S15.2,13.5,14.6,13.5z
				 M35.4,20.4H19.2c-0.6,0-1.1,0.5-1.1,1.1s0.5,1.1,1.1,1.1h16.2c0.6,0,1.1-0.5,1.1-1.1S36,20.4,35.4,20.4z M14.6,20.4
				c-0.6,0-1.2,0.5-1.2,1.1c0,0.6,0.5,1.1,1.2,1.1c0.6,0,1.1-0.5,1.1-1.1S15.2,20.4,14.6,20.4z M35.4,27.3H19.2
				c-0.6,0-1.1,0.5-1.1,1.1s0.5,1.1,1.1,1.1h16.2c0.6,0,1.1-0.5,1.1-1.1S36,27.3,35.4,27.3z M14.6,27.3c-0.6,0-1.2,0.5-1.2,1.1
				c0,0.6,0.5,1.1,1.2,1.1c0.6,0,1.1-0.5,1.1-1.1S15.2,27.3,14.6,27.3z M35.4,34.2H19.2c-0.3,0-0.6,0.1-0.8,0.3s-0.3,0.5-0.3,0.8
				c0,0.6,0.5,1.1,1.1,1.1h16.2c0.6,0,1.1-0.5,1.1-1.1S36,34.2,35.4,34.2z M14.6,34.2c-0.6,0-1.2,0.5-1.2,1.1c0,0.6,0.5,1.1,1.2,1.1
				c0.6,0,1.1-0.4,1.1-1c0-0.3-0.1-0.6-0.3-0.9C15.2,34.3,14.9,34.2,14.6,34.2z M40,2.1H10c-3.2,0-5.8,2.6-5.8,5.7v34.4
				c0,3.2,2.6,5.7,5.8,5.7H40c3.2,0,5.8-2.6,5.8-5.7V7.8C45.8,4.6,43.2,2.1,40,2.1z M7,41.7V8.3c0-0.9,0.3-1.8,1-2.4
				c0.6-0.6,1.5-1,2.4-1h29.2c0.9,0,1.8,0.4,2.4,1s1,1.5,1,2.4v33.3c0,0.9-0.3,1.8-1,2.4s-1.5,1-2.4,1H10.4c-0.9,0-1.8-0.4-2.4-1
				C7.4,43.4,7,42.6,7,41.7z" style="fill:#165FB4"/>
		</g>
	</g>
</g>
</svg>
