<?xml version="1.0" encoding="utf-8"?>
<!-- Generator: Adobe Illustrator 22.1.0, SVG Export Plug-In . SVG Version: 6.00 Build 0)  -->
<svg width="50px" height="50px" version="1.1" id="图层_1" xmlns="http://www.w3.org/2000/svg" xmlns:xlink="http://www.w3.org/1999/xlink" x="0px" y="0px"
	 viewBox="0 0 40 40" style="enable-background:new 0 0 40 40;" xml:space="preserve">
<style type="text/css">
	.st0{fill-opacity:0;}
</style>
<title>评价</title>
<desc>Created with Sketch.</desc>
<g id="Page-1">
	<g id="画板" transform="translate(-358.000000, -557.000000)">
		<g id="评价" transform="translate(358.000000, 557.000000)">
			<rect id="矩形" class="st0" width="39.2" height="39.2"/>
			<path id="形状" d="M39.5,7.7L19.2,28.9h-7.4v-7.4L32.2,0.4c0.6-0.6,1.5-0.6,2.1,0l5.2,5.2C40.1,6.2,40.1,7.2,39.5,7.7z
				 M33.3,3.6L14.8,23v3h3L36.4,6.7L33.3,3.6z M20.7,3.8H3v32.5h32.5V18.5c0-1.1,0.3-1.3,1.4-1.3c1.1,0,1.6,0.2,1.6,1.3v17.7
				c0,1.4-1.5,3-3,3H3c-1.4,0-3-1.5-3-3V3.8c0-1.4,1.5-3,3-3h17.7c1.1,0,1.3,0.5,1.3,1.6C22,3.4,21.8,3.8,20.7,3.8z"/>
		</g>
	</g>
</g>
</svg>
