<?xml version="1.0" encoding="utf-8"?>
<!-- Generator: Adobe Illustrator 22.1.0, SVG Export Plug-In . SVG Version: 6.00 Build 0)  -->
<svg width="50px" height="50px" version="1.1" id="图层_1" xmlns="http://www.w3.org/2000/svg" xmlns:xlink="http://www.w3.org/1999/xlink" x="0px" y="0px"
	 viewBox="0 0 45 43" style="enable-background:new 0 0 45 43;" xml:space="preserve">
<style type="text/css">
	.st0{fill-opacity:0;}
</style>
<title>设置</title>
<desc>Created with Sketch.</desc>
<g id="Page-1">
	<g id="画板" transform="translate(-355.000000, -645.000000)">
		<g id="设置" transform="translate(350.000000, 639.000000)">
			<rect id="矩形" class="st0" width="55" height="55"/>
			<path id="形状" d="M49.5,23.2c-0.4-2.1-1.8-3.4-3.7-3.4h-0.1c-1.9,0-3.4-1.6-3.4-3.5c0-0.4,0.2-1.1,0.3-1.3
				c0.8-1.8,0.2-4-1.5-5.2l-5.2-2.9l-0.2-0.1c-0.5-0.2-1.1-0.3-1.7-0.3c-1.2,0-2.4,0.5-3.2,1.3c-0.8,0.8-2.2,1.8-2.8,1.8
				c-0.6,0-2.1-1-2.8-1.8c-0.8-0.9-2-1.4-3.3-1.4c-0.6,0-1.2,0.1-1.7,0.3l-5.5,3l-0.2,0.1c-1.6,1.1-2.2,3.4-1.4,5.2
				c0.1,0.2,0.3,0.9,0.3,1.3c0,1.9-1.5,3.5-3.6,3.5H9.7c-1.7,0-3.2,1.4-3.5,3.4c-0.1,0.6-0.4,2.6-0.4,4.3c0,1.7,0.3,3.7,0.5,4.4
				c0.4,2,1.8,3.4,3.5,3.4h0.2c1.9,0,3.4,1.6,3.4,3.5c0,0.4-0.2,1-0.3,1.3c-0.8,1.8-0.2,4,1.5,5.2l5.2,2.9l0.2,0.1
				c0.5,0.2,1.1,0.3,1.7,0.3c1.2,0,2.5-0.5,3.3-1.4c0.8-0.8,2.2-1.9,2.9-1.9c0.7,0,2.1,1,2.9,1.9c0.8,0.9,2,1.4,3.3,1.4
				c0.6,0,1.2-0.1,1.7-0.3l5.4-3l0.2-0.1c1.6-1.1,2.2-3.4,1.4-5.2c-0.1-0.2-0.3-0.9-0.3-1.3c0-1.9,1.5-3.5,3.6-3.5
				c1.7,0,3.2-1.3,3.6-3.4c0.1-0.6,0.4-2.6,0.4-4.3C50,25.8,49.6,23.8,49.5,23.2z M46.4,31.3c-0.1,0.4-0.3,0.8-0.5,0.8
				c-3.7,0-6.7,2.9-6.7,6.6c0,1.1,0.4,2.2,0.6,2.5c0.2,0.5,0,1.1-0.3,1.3l0,0l-5.1,2.8c-0.1,0-0.2,0-0.3,0c-0.4,0-0.7-0.1-0.9-0.4
				c-0.3-0.3-2.8-3-5.3-3c-2.5,0-5.2,2.9-5.2,2.9c-0.2,0.2-0.6,0.4-1,0.4c-0.1,0-0.3,0-0.4-0.1l-0.1,0l-4.9-2.8
				c-0.3-0.3-0.5-0.9-0.3-1.3c0.1-0.3,0.6-1.4,0.6-2.6c0-3.7-3-6.6-6.6-6.6H9.7c-0.1,0-0.3-0.3-0.4-0.8c-0.1-0.5-0.4-2.3-0.4-3.8
				c0-1.1,0.2-2.7,0.4-3.8c0.1-0.5,0.3-0.8,0.4-0.8h0.1c3.8,0,6.7-2.9,6.7-6.6c0-1.1-0.5-2.3-0.6-2.5c-0.2-0.5,0-1,0.3-1.3l0.1,0
				l5.2-2.9c0.1,0,0.2,0,0.3,0c0.4,0,0.8,0.2,1,0.4c0.1,0.1,2.6,2.8,5.1,2.8c2.5,0,5-2.6,5.1-2.7c0.2-0.2,0.6-0.4,1-0.4
				c0.1,0,0.3,0,0.4,0.1l0,0l5,2.8c0.4,0.3,0.5,0.9,0.3,1.3c-0.1,0.3-0.6,1.4-0.6,2.6c0,3.7,3,6.6,6.6,6.6c0.4,0,0.6,0.6,0.6,0.8
				c0.2,1.1,0.4,2.6,0.4,3.8C46.8,28.7,46.6,30.3,46.4,31.3z" style="fill:#CF3548"/>
			<path id="形状_1_" d="M27.5,19c-4.7,0-8.5,3.8-8.5,8.5s3.8,8.5,8.5,8.5c4.7,0,8.5-3.8,8.5-8.5C36,22.8,32.2,19,27.5,19z
				 M27.5,32.8c-2.9,0-5.3-2.4-5.3-5.3s2.4-5.3,5.3-5.3s5.3,2.4,5.3,5.3C32.8,30.4,30.4,32.8,27.5,32.8z" style="fill:#CF3548"/>
		</g>
	</g>
</g>
</svg>
