<?xml version="1.0" encoding="utf-8"?>
<!-- Generator: Adobe Illustrator 22.1.0, SVG Export Plug-In . SVG Version: 6.00 Build 0)  -->
<svg width="50px" height="50px" version="1.1" id="图层_1" xmlns="http://www.w3.org/2000/svg" xmlns:xlink="http://www.w3.org/1999/xlink" x="0px" y="0px"
	 viewBox="0 0 50 50" style="enable-background:new 0 0 50 50;" xml:space="preserve">
<style type="text/css">
	.st0{fill:#001629;fill-opacity:0;}
	.st1{fill:#001629;}
</style>
<title>开始</title>
<desc>Created with Sketch.</desc>
<g id="Page-1">
	<g id="画板" transform="translate(-353.000000, -279.000000)">
		<g id="开始" transform="translate(353.000000, 279.000000)">
			<rect id="矩形" class="st0" width="50" height="50"/>
			<path id="形状" class="st1" d="M25,0C11.2,0,0,11.2,0,25s11.2,25,25,25c13.8,0,25-11.2,25-25S38.8,0,25,0z M25,46.6
				C13.1,46.6,3.4,36.9,3.4,25S13.1,3.4,25,3.4c11.9,0,21.6,9.7,21.6,21.6S36.9,46.6,25,46.6z M36.6,23.5l-17-9.8
				c-0.5-0.3-1.2-0.3-1.7,0C17.4,14,17,14.6,17,15.2v19.7c0,0.6,0.3,1.2,0.9,1.5c0.3,0.1,0.6,0.2,0.9,0.2c0.3,0,0.6-0.1,0.9-0.2
				l17-9.8c0.5-0.3,0.9-0.9,0.9-1.5C37.5,24.4,37.2,23.8,36.6,23.5z M20.5,31.9V18.1L32.4,25L20.5,31.9z" style="fill:#6217A3"/>
		</g>
	</g>
</g>
</svg>
